<?xml version="1.0" encoding="UTF-8" standalone="no"?><svg xmlns="http://www.w3.org/2000/svg" xmlns:xlink="http://www.w3.org/1999/xlink" contentScriptType="application/ecmascript" contentStyleType="text/css" height="321px" preserveAspectRatio="none" style="width:373px;height:321px;" version="1.1" viewBox="0 0 373 321" width="373px" zoomAndPan="magnify"><defs><filter height="300%" id="f1ud1fkpjt2gql" width="300%" x="-1" y="-1"><feGaussianBlur result="blurOut" stdDeviation="2.0"/><feColorMatrix in="blurOut" result="blurOut2" type="matrix" values="0 0 0 0 0 0 0 0 0 0 0 0 0 0 0 0 0 0 .4 0"/><feOffset dx="4.0" dy="4.0" in="blurOut2" result="blurOut3"/><feBlend in="SourceGraphic" in2="blurOut3" mode="normal"/></filter></defs><g><text fill="#000000" font-family="sans-serif" font-size="18" lengthAdjust="spacingAndGlyphs" textLength="91" x="145" y="16.708">Edit a task</text><!--entity U--><ellipse cx="179.5" cy="38.9531" fill="#FEFECE" filter="url(#f1ud1fkpjt2gql)" rx="8" ry="8" style="stroke: #A80036; stroke-width: 2.0;"/><path d="M179.5,46.9531 L179.5,73.9531 M166.5,54.9531 L192.5,54.9531 M179.5,73.9531 L166.5,88.9531 M179.5,73.9531 L192.5,88.9531 " fill="none" filter="url(#f1ud1fkpjt2gql)" style="stroke: #A80036; stroke-width: 2.0;"/><text fill="#000000" font-family="sans-serif" font-size="14" lengthAdjust="spacingAndGlyphs" textLength="32" x="163.5" y="108.9482">User</text><ellipse cx="44.3553" cy="187.4768" fill="#FEFECE" filter="url(#f1ud1fkpjt2gql)" rx="38.3553" ry="14.5236" style="stroke: #A80036; stroke-width: 1.5;"/><text fill="#000000" font-family="sans-serif" font-size="14" lengthAdjust="spacingAndGlyphs" textLength="50" x="19.3553" y="192.1252">Update</text><ellipse cx="179.6565" cy="187.5844" fill="#FEFECE" filter="url(#f1ud1fkpjt2gql)" rx="61.1565" ry="14.6313" style="stroke: #A80036; stroke-width: 1.5;"/><text fill="#000000" font-family="sans-serif" font-size="14" lengthAdjust="spacingAndGlyphs" textLength="83" x="138.1565" y="192.2329">Set as done</text><ellipse cx="319.3051" cy="187.4768" fill="#FEFECE" filter="url(#f1ud1fkpjt2gql)" rx="43.3051" ry="14.5236" style="stroke: #A80036; stroke-width: 1.5;"/><text fill="#000000" font-family="sans-serif" font-size="14" lengthAdjust="spacingAndGlyphs" textLength="57" x="290.8051" y="192.1252">Remove</text><ellipse cx="179.6107" cy="294.7753" fill="#FEFECE" filter="url(#f1ud1fkpjt2gql)" rx="67.1107" ry="15.8221" style="stroke: #A80036; stroke-width: 1.5;"/><text fill="#000000" font-family="sans-serif" font-size="14" lengthAdjust="spacingAndGlyphs" textLength="99" x="130.1107" y="299.4237">Choose a task</text><!--link U to Update--><path d="M163.484,85.0971 C138.423,106.4441 90.0533,147.6481 63.3514,170.3941 " fill="none" id="U-Update" style="stroke: #A80036; stroke-width: 1.0;"/><polygon fill="#A80036" points="59.2588,173.8811,68.7041,171.0909,63.0654,170.6392,63.5171,165.0004,59.2588,173.8811" style="stroke: #A80036; stroke-width: 1.0;"/><!--link U to Set as done--><path d="M179.5,111.9981 C179.5,130.8881 179.5,152.4601 179.5,167.5051 " fill="none" id="U-Set as done" style="stroke: #A80036; stroke-width: 1.0;"/><polygon fill="#A80036" points="179.5,172.7351,183.5,163.7351,179.5,167.7351,175.5,163.7351,179.5,172.7351" style="stroke: #A80036; stroke-width: 1.0;"/><!--link U to Remove--><path d="M195.56,84.6451 C221.436,105.9011 272.265,147.6531 300.117,170.5311 " fill="none" id="U-Remove" style="stroke: #A80036; stroke-width: 1.0;"/><polygon fill="#A80036" points="304.054,173.7651,299.6365,164.9625,300.1897,170.5923,294.5599,171.1454,304.054,173.7651" style="stroke: #A80036; stroke-width: 1.0;"/><!--link Update to Choose a task--><path d="M56.6037,201.2591 C69.0177,214.055 89.1903,233.9327 108.5,248.9531 C121.747,259.2574 137.42,269.3848 150.666,277.4149 " fill="none" id="Update-Choose a task" style="stroke: #A80036; stroke-width: 1.0; stroke-dasharray: 7.0,7.0;"/><polygon fill="#A80036" points="155.058,280.055,149.4047,271.9903,150.7725,277.4793,145.2835,278.8471,155.058,280.055" style="stroke: #A80036; stroke-width: 1.0;"/><text fill="#000000" font-family="sans-serif" font-size="13" lengthAdjust="spacingAndGlyphs" textLength="61" x="109.5" y="245.02">«include»</text><!--link Set as done to Choose a task--><path d="M179.5,202.2451 C179.5,220.4728 179.5,252.722 179.5,273.7131 " fill="none" id="Set as done-Choose a task" style="stroke: #A80036; stroke-width: 1.0; stroke-dasharray: 7.0,7.0;"/><polygon fill="#A80036" points="179.5,278.7919,183.5,269.7919,179.5,273.7919,175.5,269.7919,179.5,278.7919" style="stroke: #A80036; stroke-width: 1.0;"/><text fill="#000000" font-family="sans-serif" font-size="13" lengthAdjust="spacingAndGlyphs" textLength="61" x="180.5" y="245.02">«include»</text><!--link Remove to Choose a task--><path d="M306.024,201.3921 C292.487,214.114 270.782,233.7769 250.5,248.9531 C237.063,259.0077 221.37,269.1097 208.16,277.1876 " fill="none" id="Remove-Choose a task" style="stroke: #A80036; stroke-width: 1.0; stroke-dasharray: 7.0,7.0;"/><polygon fill="#A80036" points="203.783,279.8465,213.5518,278.5931,208.0565,277.2509,209.3987,271.7556,203.783,279.8465" style="stroke: #A80036; stroke-width: 1.0;"/><text fill="#000000" font-family="sans-serif" font-size="13" lengthAdjust="spacingAndGlyphs" textLength="61" x="271.5" y="245.02">«include»</text><!--
@startuml
title Edit a task

actor :User: as U

U - -> (Update)
U - -> (Set as done)
U - -> (Remove)

(Update) ..> (Choose a task) : <<include>>
(Set as done) ..> (Choose a task) : <<include>>
(Remove) ..> (Choose a task) : <<include>>
@enduml

PlantUML version 1.2018.11(Sat Sep 22 16:43:53 UTC 2018)
(GPL source distribution)
Java Runtime: Java(TM) SE Runtime Environment
JVM: Java HotSpot(TM) 64-Bit Server VM
Java Version: 1.7.0_25-b15
Operating System: Linux
Default Encoding: UTF-8
Language: en
Country: US
--></g></svg>