<?xml version="1.0" encoding="UTF-8" standalone="no"?><svg xmlns="http://www.w3.org/2000/svg" xmlns:xlink="http://www.w3.org/1999/xlink" contentScriptType="application/ecmascript" contentStyleType="text/css" height="329px" preserveAspectRatio="none" style="width:342px;height:329px;" version="1.1" viewBox="0 0 342 329" width="342px" zoomAndPan="magnify"><defs><filter height="300%" id="fuw9mlup57oj7" width="300%" x="-1" y="-1"><feGaussianBlur result="blurOut" stdDeviation="2.0"/><feColorMatrix in="blurOut" result="blurOut2" type="matrix" values="0 0 0 0 0 0 0 0 0 0 0 0 0 0 0 0 0 0 .4 0"/><feOffset dx="4.0" dy="4.0" in="blurOut2" result="blurOut3"/><feBlend in="SourceGraphic" in2="blurOut3" mode="normal"/></filter></defs><g><text fill="#000000" font-family="sans-serif" font-size="18" lengthAdjust="spacingAndGlyphs" textLength="121" x="114.5" y="16.708">Show task list</text><!--entity U--><ellipse cx="213.5" cy="38.9531" fill="#FEFECE" filter="url(#fuw9mlup57oj7)" rx="8" ry="8" style="stroke: #A80036; stroke-width: 2.0;"/><path d="M213.5,46.9531 L213.5,73.9531 M200.5,54.9531 L226.5,54.9531 M213.5,73.9531 L200.5,88.9531 M213.5,73.9531 L226.5,88.9531 " fill="none" filter="url(#fuw9mlup57oj7)" style="stroke: #A80036; stroke-width: 2.0;"/><text fill="#000000" font-family="sans-serif" font-size="14" lengthAdjust="spacingAndGlyphs" textLength="32" x="197.5" y="108.9482">User</text><ellipse cx="80.4543" cy="189.744" fill="#FEFECE" filter="url(#fuw9mlup57oj7)" rx="69.4543" ry="16.2909" style="stroke: #A80036; stroke-width: 1.5;"/><text fill="#000000" font-family="sans-serif" font-size="14" lengthAdjust="spacingAndGlyphs" textLength="105" x="27.9543" y="194.3924">Filter by project</text><ellipse cx="258.5637" cy="189.9659" fill="#FEFECE" filter="url(#fuw9mlup57oj7)" rx="73.0637" ry="17.0127" style="stroke: #A80036; stroke-width: 1.5;"/><text fill="#000000" font-family="sans-serif" font-size="14" lengthAdjust="spacingAndGlyphs" textLength="114" x="201.5637" y="194.6143">Sort by due date</text><ellipse cx="80.7002" cy="301.2932" fill="#FEFECE" filter="url(#fuw9mlup57oj7)" rx="74.7002" ry="17.34" style="stroke: #A80036; stroke-width: 1.5;"/><text fill="#000000" font-family="sans-serif" font-size="14" lengthAdjust="spacingAndGlyphs" textLength="118" x="21.7002" y="305.9416">Choose a project</text><!--link U to Filter by project--><path d="M197.457,85.6261 C173.487,106.8031 128.3,146.7241 101.6558,170.2631 " fill="none" id="U-Filter by project" style="stroke: #A80036; stroke-width: 1.0;"/><polygon fill="#A80036" points="97.864,173.6131,107.2572,170.6521,101.6111,170.3027,101.9605,164.6566,97.864,173.6131" style="stroke: #A80036; stroke-width: 1.0;"/><!--link U to Sort by due date--><path d="M229.113,112.2191 C236.274,130.9181 244.465,152.3071 250.378,167.7451 " fill="none" id="U-Sort by due date" style="stroke: #A80036; stroke-width: 1.0;"/><polygon fill="#A80036" points="252.291,172.7391,252.8075,162.9038,250.5027,168.0699,245.3367,165.7651,252.291,172.7391" style="stroke: #A80036; stroke-width: 1.0;"/><!--link Filter by project to Choose a project--><path d="M80.5,206.6421 C80.5,225.5044 80.5,257.274 80.5,278.548 " fill="none" id="Filter by project-Choose a project" style="stroke: #A80036; stroke-width: 1.0; stroke-dasharray: 7.0,7.0;"/><polygon fill="#A80036" points="80.5,283.7163,84.5,274.7163,80.5,278.7163,76.5,274.7163,80.5,283.7163" style="stroke: #A80036; stroke-width: 1.0;"/><text fill="#000000" font-family="sans-serif" font-size="13" lengthAdjust="spacingAndGlyphs" textLength="61" x="81.5" y="250.02">«include»</text><!--
@startuml
title Show task list

actor :User: as U

U - -> (Filter by project)
U - -> (Sort by due date)

(Filter by project) ..> (Choose a project) : <<include>>
@enduml

PlantUML version 1.2018.11(Sat Sep 22 16:43:53 UTC 2018)
(GPL source distribution)
Java Runtime: Java(TM) SE Runtime Environment
JVM: Java HotSpot(TM) 64-Bit Server VM
Java Version: 1.7.0_25-b15
Operating System: Linux
Default Encoding: UTF-8
Language: en
Country: US
--></g></svg>