<?xml version="1.0" encoding="UTF-8" standalone="no"?><svg xmlns="http://www.w3.org/2000/svg" xmlns:xlink="http://www.w3.org/1999/xlink" contentScriptType="application/ecmascript" contentStyleType="text/css" height="543px" preserveAspectRatio="none" style="width:262px;height:543px;" version="1.1" viewBox="0 0 262 543" width="262px" zoomAndPan="magnify"><defs><filter height="300%" id="fyxv3dfnv2m1t" width="300%" x="-1" y="-1"><feGaussianBlur result="blurOut" stdDeviation="2.0"/><feColorMatrix in="blurOut" result="blurOut2" type="matrix" values="0 0 0 0 0 0 0 0 0 0 0 0 0 0 0 0 0 0 .4 0"/><feOffset dx="4.0" dy="4.0" in="blurOut2" result="blurOut3"/><feBlend in="SourceGraphic" in2="blurOut3" mode="normal"/></filter></defs><g><text fill="#000000" font-family="sans-serif" font-size="18" lengthAdjust="spacingAndGlyphs" textLength="91" x="84.75" y="26.708">Add a task</text><ellipse cx="149.5" cy="40.9531" fill="#000000" filter="url(#fyxv3dfnv2m1t)" rx="10" ry="10" style="stroke: none; stroke-width: 1.0;"/><rect fill="#FEFECE" filter="url(#fyxv3dfnv2m1t)" height="33.9688" rx="12.5" ry="12.5" style="stroke: #A80036; stroke-width: 1.5;" width="159" x="70" y="70.9531"/><text fill="#000000" font-family="sans-serif" font-size="12" lengthAdjust="spacingAndGlyphs" textLength="139" x="80" y="92.0918">Read task list from file</text><rect fill="#FEFECE" filter="url(#fyxv3dfnv2m1t)" height="33.9688" rx="12.5" ry="12.5" style="stroke: #A80036; stroke-width: 1.5;" width="142" x="78.5" y="124.9219"/><text fill="#000000" font-family="sans-serif" font-size="12" lengthAdjust="spacingAndGlyphs" textLength="122" x="88.5" y="146.0605">Display instructions</text><rect fill="#FEFECE" filter="url(#fyxv3dfnv2m1t)" height="33.9688" rx="12.5" ry="12.5" style="stroke: #A80036; stroke-width: 1.5;" width="69" x="115" y="178.8906"/><text fill="#000000" font-family="sans-serif" font-size="12" lengthAdjust="spacingAndGlyphs" textLength="49" x="125" y="200.0293">Set title</text><rect fill="#FEFECE" filter="url(#fyxv3dfnv2m1t)" height="33.9688" rx="12.5" ry="12.5" style="stroke: #A80036; stroke-width: 1.5;" width="102" x="98.5" y="232.8594"/><text fill="#000000" font-family="sans-serif" font-size="12" lengthAdjust="spacingAndGlyphs" textLength="82" x="108.5" y="253.998">Set due date</text><rect fill="#FEFECE" filter="url(#fyxv3dfnv2m1t)" height="33.9688" rx="12.5" ry="12.5" style="stroke: #A80036; stroke-width: 1.5;" width="89" x="105" y="286.8281"/><text fill="#000000" font-family="sans-serif" font-size="12" lengthAdjust="spacingAndGlyphs" textLength="69" x="115" y="307.9668">Set project</text><polygon fill="#FEFECE" filter="url(#fyxv3dfnv2m1t)" points="94.5,340.7969,204.5,340.7969,216.5,352.7969,204.5,364.7969,94.5,364.7969,82.5,352.7969,94.5,340.7969" style="stroke: #A80036; stroke-width: 1.5;"/><text fill="#000000" font-family="sans-serif" font-size="11" lengthAdjust="spacingAndGlyphs" textLength="110" x="94.5" y="356.605">Task already exist?</text><text fill="#000000" font-family="sans-serif" font-size="11" lengthAdjust="spacingAndGlyphs" textLength="20" x="62.5" y="350.2026">yes</text><text fill="#000000" font-family="sans-serif" font-size="11" lengthAdjust="spacingAndGlyphs" textLength="14" x="216.5" y="350.2026">no</text><rect fill="#FEFECE" filter="url(#fyxv3dfnv2m1t)" height="33.9688" rx="12.5" ry="12.5" style="stroke: #A80036; stroke-width: 1.5;" width="125" x="10" y="374.7969"/><text fill="#000000" font-family="sans-serif" font-size="12" lengthAdjust="spacingAndGlyphs" textLength="105" x="20" y="395.9355">Display message</text><rect fill="#FEFECE" filter="url(#fyxv3dfnv2m1t)" height="33.9688" rx="12.5" ry="12.5" style="stroke: #A80036; stroke-width: 1.5;" width="50" x="201.5" y="374.7969"/><text fill="#000000" font-family="sans-serif" font-size="12" lengthAdjust="spacingAndGlyphs" textLength="30" x="211.5" y="395.9355">Save</text><polygon fill="#FEFECE" filter="url(#fyxv3dfnv2m1t)" points="149.5,414.7656,161.5,426.7656,149.5,438.7656,137.5,426.7656,149.5,414.7656" style="stroke: #A80036; stroke-width: 1.5;"/><rect fill="#FEFECE" filter="url(#fyxv3dfnv2m1t)" height="33.9688" rx="12.5" ry="12.5" style="stroke: #A80036; stroke-width: 1.5;" width="142" x="78.5" y="458.7656"/><text fill="#000000" font-family="sans-serif" font-size="12" lengthAdjust="spacingAndGlyphs" textLength="122" x="88.5" y="479.9043">Display instructions</text><ellipse cx="149.5" cy="522.7344" fill="none" filter="url(#fyxv3dfnv2m1t)" rx="10" ry="10" style="stroke: #000000; stroke-width: 1.0;"/><ellipse cx="150" cy="523.2344" fill="#000000" filter="url(#fyxv3dfnv2m1t)" rx="6" ry="6" style="stroke: none; stroke-width: 1.0;"/><line style="stroke: #A80036; stroke-width: 1.5;" x1="149.5" x2="149.5" y1="50.9531" y2="70.9531"/><polygon fill="#A80036" points="145.5,60.9531,149.5,70.9531,153.5,60.9531,149.5,64.9531" style="stroke: #A80036; stroke-width: 1.0;"/><line style="stroke: #A80036; stroke-width: 1.5;" x1="149.5" x2="149.5" y1="104.9219" y2="124.9219"/><polygon fill="#A80036" points="145.5,114.9219,149.5,124.9219,153.5,114.9219,149.5,118.9219" style="stroke: #A80036; stroke-width: 1.0;"/><line style="stroke: #A80036; stroke-width: 1.5;" x1="149.5" x2="149.5" y1="158.8906" y2="178.8906"/><polygon fill="#A80036" points="145.5,168.8906,149.5,178.8906,153.5,168.8906,149.5,172.8906" style="stroke: #A80036; stroke-width: 1.0;"/><line style="stroke: #A80036; stroke-width: 1.5;" x1="149.5" x2="149.5" y1="212.8594" y2="232.8594"/><polygon fill="#A80036" points="145.5,222.8594,149.5,232.8594,153.5,222.8594,149.5,226.8594" style="stroke: #A80036; stroke-width: 1.0;"/><line style="stroke: #A80036; stroke-width: 1.5;" x1="149.5" x2="149.5" y1="266.8281" y2="286.8281"/><polygon fill="#A80036" points="145.5,276.8281,149.5,286.8281,153.5,276.8281,149.5,280.8281" style="stroke: #A80036; stroke-width: 1.0;"/><line style="stroke: #A80036; stroke-width: 1.5;" x1="82.5" x2="72.5" y1="352.7969" y2="352.7969"/><line style="stroke: #A80036; stroke-width: 1.5;" x1="72.5" x2="72.5" y1="352.7969" y2="374.7969"/><polygon fill="#A80036" points="68.5,364.7969,72.5,374.7969,76.5,364.7969,72.5,368.7969" style="stroke: #A80036; stroke-width: 1.0;"/><line style="stroke: #A80036; stroke-width: 1.5;" x1="216.5" x2="226.5" y1="352.7969" y2="352.7969"/><line style="stroke: #A80036; stroke-width: 1.5;" x1="226.5" x2="226.5" y1="352.7969" y2="374.7969"/><polygon fill="#A80036" points="222.5,364.7969,226.5,374.7969,230.5,364.7969,226.5,368.7969" style="stroke: #A80036; stroke-width: 1.0;"/><line style="stroke: #A80036; stroke-width: 1.5;" x1="72.5" x2="72.5" y1="408.7656" y2="426.7656"/><line style="stroke: #A80036; stroke-width: 1.5;" x1="72.5" x2="137.5" y1="426.7656" y2="426.7656"/><polygon fill="#A80036" points="127.5,422.7656,137.5,426.7656,127.5,430.7656,131.5,426.7656" style="stroke: #A80036; stroke-width: 1.0;"/><line style="stroke: #A80036; stroke-width: 1.5;" x1="226.5" x2="226.5" y1="408.7656" y2="426.7656"/><line style="stroke: #A80036; stroke-width: 1.5;" x1="226.5" x2="161.5" y1="426.7656" y2="426.7656"/><polygon fill="#A80036" points="171.5,422.7656,161.5,426.7656,171.5,430.7656,167.5,426.7656" style="stroke: #A80036; stroke-width: 1.0;"/><line style="stroke: #A80036; stroke-width: 1.5;" x1="149.5" x2="149.5" y1="320.7969" y2="340.7969"/><polygon fill="#A80036" points="145.5,330.7969,149.5,340.7969,153.5,330.7969,149.5,334.7969" style="stroke: #A80036; stroke-width: 1.0;"/><line style="stroke: #A80036; stroke-width: 1.5;" x1="149.5" x2="149.5" y1="438.7656" y2="458.7656"/><polygon fill="#A80036" points="145.5,448.7656,149.5,458.7656,153.5,448.7656,149.5,452.7656" style="stroke: #A80036; stroke-width: 1.0;"/><line style="stroke: #A80036; stroke-width: 1.5;" x1="149.5" x2="149.5" y1="492.7344" y2="512.7344"/><polygon fill="#A80036" points="145.5,502.7344,149.5,512.7344,153.5,502.7344,149.5,506.7344" style="stroke: #A80036; stroke-width: 1.0;"/><!--
@startuml
title Add a task


start

:Read task list from file;

:Display instructions;

:Set title;

:Set due date;

:Set project;

if (Task already exist?) then (yes)
  :Display message;
else (no)
  :Save;

endif

:Display instructions;

stop
@enduml

PlantUML version 1.2018.11(Sat Sep 22 16:43:53 UTC 2018)
(GPL source distribution)
Java Runtime: Java(TM) SE Runtime Environment
JVM: Java HotSpot(TM) 64-Bit Server VM
Java Version: 1.7.0_25-b15
Operating System: Linux
Default Encoding: UTF-8
Language: en
Country: US
--></g></svg>