<?xml version="1.0" encoding="UTF-8" standalone="no"?><svg xmlns="http://www.w3.org/2000/svg" xmlns:xlink="http://www.w3.org/1999/xlink" contentScriptType="application/ecmascript" contentStyleType="text/css" height="385px" preserveAspectRatio="none" style="width:184px;height:385px;" version="1.1" viewBox="0 0 184 385" width="184px" zoomAndPan="magnify"><defs><filter height="300%" id="f194a9rqx43g9p" width="300%" x="-1" y="-1"><feGaussianBlur result="blurOut" stdDeviation="2.0"/><feColorMatrix in="blurOut" result="blurOut2" type="matrix" values="0 0 0 0 0 0 0 0 0 0 0 0 0 0 0 0 0 0 .4 0"/><feOffset dx="4.0" dy="4.0" in="blurOut2" result="blurOut3"/><feBlend in="SourceGraphic" in2="blurOut3" mode="normal"/></filter></defs><g><!--class Task--><rect fill="#FEFECE" filter="url(#f194a9rqx43g9p)" height="150.4375" id="Task" style="stroke: #A80036; stroke-width: 1.5;" width="159" x="14.5" y="224"/><ellipse cx="75.25" cy="240" fill="#ADD1B2" rx="11" ry="11" style="stroke: #A80036; stroke-width: 1.0;"/><path d="M77.5938,235.6719 L77.7656,235.75 C77.9844,235.4375 78.1875,235.3438 78.4844,235.3438 C78.7813,235.3438 79.0625,235.4844 79.2188,235.75 C79.3125,235.9063 79.3281,236.0313 79.3281,236.4688 L79.3281,237.8906 C79.3281,238.3125 79.2969,238.5 79.1875,238.6563 C79.0156,238.875 78.75,239.0156 78.4844,239.0156 C78.2656,239.0156 78.0313,238.9063 77.8906,238.7656 C77.75,238.6406 77.7188,238.5156 77.6563,238.1094 C77.5625,237.7031 77.3906,237.4844 76.9063,237.2031 C76.4375,236.9531 75.8281,236.7969 75.25,236.7969 C73.5156,236.7969 72.2656,238.1094 72.2656,239.8906 L72.2656,240.9844 C72.2656,242.6875 73.5625,243.7813 75.6094,243.7813 C76.375,243.7813 77.0625,243.6563 77.4844,243.3906 C77.6719,243.2969 77.6719,243.2969 78.125,242.8125 C78.3125,242.625 78.5156,242.5469 78.7344,242.5469 C79.2031,242.5469 79.5938,242.9375 79.5938,243.3906 C79.5938,243.7813 79.2656,244.2344 78.6875,244.6406 C77.9375,245.1875 76.7813,245.4844 75.5625,245.4844 C72.6719,245.4844 70.5625,243.5938 70.5625,241.0156 L70.5625,239.8906 C70.5625,237.1719 72.5625,235.0938 75.1875,235.0938 C76.0625,235.0938 76.6563,235.2344 77.5938,235.6719 Z "/><text fill="#000000" font-family="sans-serif" font-size="12" lengthAdjust="spacingAndGlyphs" textLength="29" x="95.75" y="244.1543">Task</text><line style="stroke: #A80036; stroke-width: 1.5;" x1="15.5" x2="172.5" y1="256" y2="256"/><ellipse cx="25.5" cy="267.9023" fill="none" rx="3" ry="3" style="stroke: #038048; stroke-width: 1.0;"/><text fill="#000000" font-family="sans-serif" font-size="11" lengthAdjust="spacingAndGlyphs" textLength="59" x="34.5" y="270.2104">String title</text><ellipse cx="25.5" cy="280.707" fill="none" rx="3" ry="3" style="stroke: #038048; stroke-width: 1.0;"/><text fill="#000000" font-family="sans-serif" font-size="11" lengthAdjust="spacingAndGlyphs" textLength="106" x="34.5" y="283.0151">LocalDate dueDate</text><ellipse cx="25.5" cy="293.5117" fill="none" rx="3" ry="3" style="stroke: #038048; stroke-width: 1.0;"/><text fill="#000000" font-family="sans-serif" font-size="11" lengthAdjust="spacingAndGlyphs" textLength="86" x="34.5" y="295.8198">Boolean status</text><ellipse cx="25.5" cy="306.3164" fill="none" rx="3" ry="3" style="stroke: #038048; stroke-width: 1.0;"/><text fill="#000000" font-family="sans-serif" font-size="11" lengthAdjust="spacingAndGlyphs" textLength="77" x="34.5" y="308.6245">String project</text><line style="stroke: #A80036; stroke-width: 1.5;" x1="15.5" x2="172.5" y1="315.2188" y2="315.2188"/><ellipse cx="25.5" cy="327.1211" fill="#84BE84" rx="3" ry="3" style="stroke: #038048; stroke-width: 1.0;"/><text fill="#000000" font-family="sans-serif" font-size="11" lengthAdjust="spacingAndGlyphs" textLength="88" x="34.5" y="329.4292">String getTitle()</text><ellipse cx="25.5" cy="339.9258" fill="#84BE84" rx="3" ry="3" style="stroke: #038048; stroke-width: 1.0;"/><text fill="#000000" font-family="sans-serif" font-size="11" lengthAdjust="spacingAndGlyphs" textLength="133" x="34.5" y="342.2339">LocalDate getDueDate()</text><ellipse cx="25.5" cy="352.7305" fill="#84BE84" rx="3" ry="3" style="stroke: #038048; stroke-width: 1.0;"/><text fill="#000000" font-family="sans-serif" font-size="11" lengthAdjust="spacingAndGlyphs" textLength="113" x="34.5" y="355.0386">Boolean getStatus()</text><ellipse cx="25.5" cy="365.5352" fill="#84BE84" rx="3" ry="3" style="stroke: #038048; stroke-width: 1.0;"/><text fill="#000000" font-family="sans-serif" font-size="11" lengthAdjust="spacingAndGlyphs" textLength="103" x="34.5" y="367.8433">String getProject()</text><!--class TaskList--><rect fill="#FEFECE" filter="url(#f194a9rqx43g9p)" height="48" id="TaskList" style="stroke: #A80036; stroke-width: 1.5;" width="82" x="6" y="116"/><ellipse cx="21" cy="132" fill="#ADD1B2" rx="11" ry="11" style="stroke: #A80036; stroke-width: 1.0;"/><path d="M23.3438,127.6719 L23.5156,127.75 C23.7344,127.4375 23.9375,127.3438 24.2344,127.3438 C24.5313,127.3438 24.8125,127.4844 24.9688,127.75 C25.0625,127.9063 25.0781,128.0313 25.0781,128.4688 L25.0781,129.8906 C25.0781,130.3125 25.0469,130.5 24.9375,130.6563 C24.7656,130.875 24.5,131.0156 24.2344,131.0156 C24.0156,131.0156 23.7813,130.9063 23.6406,130.7656 C23.5,130.6406 23.4688,130.5156 23.4063,130.1094 C23.3125,129.7031 23.1406,129.4844 22.6563,129.2031 C22.1875,128.9531 21.5781,128.7969 21,128.7969 C19.2656,128.7969 18.0156,130.1094 18.0156,131.8906 L18.0156,132.9844 C18.0156,134.6875 19.3125,135.7813 21.3594,135.7813 C22.125,135.7813 22.8125,135.6563 23.2344,135.3906 C23.4219,135.2969 23.4219,135.2969 23.875,134.8125 C24.0625,134.625 24.2656,134.5469 24.4844,134.5469 C24.9531,134.5469 25.3438,134.9375 25.3438,135.3906 C25.3438,135.7813 25.0156,136.2344 24.4375,136.6406 C23.6875,137.1875 22.5313,137.4844 21.3125,137.4844 C18.4219,137.4844 16.3125,135.5938 16.3125,133.0156 L16.3125,131.8906 C16.3125,129.1719 18.3125,127.0938 20.9375,127.0938 C21.8125,127.0938 22.4063,127.2344 23.3438,127.6719 Z "/><text fill="#000000" font-family="sans-serif" font-size="12" lengthAdjust="spacingAndGlyphs" textLength="50" x="35" y="136.1543">TaskList</text><line style="stroke: #A80036; stroke-width: 1.5;" x1="7" x2="87" y1="148" y2="148"/><line style="stroke: #A80036; stroke-width: 1.5;" x1="7" x2="87" y1="156" y2="156"/><!--class CommandLineMenu--><rect fill="#FEFECE" filter="url(#f194a9rqx43g9p)" height="48" id="CommandLineMenu" style="stroke: #A80036; stroke-width: 1.5;" width="153" x="17.5" y="8"/><ellipse cx="32.5" cy="24" fill="#ADD1B2" rx="11" ry="11" style="stroke: #A80036; stroke-width: 1.0;"/><path d="M34.8438,19.6719 L35.0156,19.75 C35.2344,19.4375 35.4375,19.3438 35.7344,19.3438 C36.0313,19.3438 36.3125,19.4844 36.4688,19.75 C36.5625,19.9063 36.5781,20.0313 36.5781,20.4688 L36.5781,21.8906 C36.5781,22.3125 36.5469,22.5 36.4375,22.6563 C36.2656,22.875 36,23.0156 35.7344,23.0156 C35.5156,23.0156 35.2813,22.9063 35.1406,22.7656 C35,22.6406 34.9688,22.5156 34.9063,22.1094 C34.8125,21.7031 34.6406,21.4844 34.1563,21.2031 C33.6875,20.9531 33.0781,20.7969 32.5,20.7969 C30.7656,20.7969 29.5156,22.1094 29.5156,23.8906 L29.5156,24.9844 C29.5156,26.6875 30.8125,27.7813 32.8594,27.7813 C33.625,27.7813 34.3125,27.6563 34.7344,27.3906 C34.9219,27.2969 34.9219,27.2969 35.375,26.8125 C35.5625,26.625 35.7656,26.5469 35.9844,26.5469 C36.4531,26.5469 36.8438,26.9375 36.8438,27.3906 C36.8438,27.7813 36.5156,28.2344 35.9375,28.6406 C35.1875,29.1875 34.0313,29.4844 32.8125,29.4844 C29.9219,29.4844 27.8125,27.5938 27.8125,25.0156 L27.8125,23.8906 C27.8125,21.1719 29.8125,19.0938 32.4375,19.0938 C33.3125,19.0938 33.9063,19.2344 34.8438,19.6719 Z "/><text fill="#000000" font-family="sans-serif" font-size="12" lengthAdjust="spacingAndGlyphs" textLength="121" x="46.5" y="28.1543">CommandLineMenu</text><line style="stroke: #A80036; stroke-width: 1.5;" x1="18.5" x2="169.5" y1="40" y2="40"/><line style="stroke: #A80036; stroke-width: 1.5;" x1="18.5" x2="169.5" y1="48" y2="48"/><!--link TaskList to Task--><path d="M53.935,164.166 C58.3556,178.933 64.3674,199.015 70.3889,219.129 " fill="none" id="TaskList-Task" style="stroke: #A80036; stroke-width: 1.0;"/><polygon fill="#A80036" points="71.8365,223.965,73.0894,214.1962,70.4036,219.1747,65.425,216.4889,71.8365,223.965" style="stroke: #A80036; stroke-width: 1.0;"/><!--link CommandLineMenu to Task--><path d="M98.2581,56.158 C101.0861,72.752 104.5379,95.669 106,116 C108.415,149.578 106.754,186.655 103.9871,218.534 " fill="none" id="CommandLineMenu-Task" style="stroke: #A80036; stroke-width: 1.0;"/><polygon fill="#A80036" points="103.5339,223.604,108.3203,214.9964,103.9796,218.6239,100.3521,214.2833,103.5339,223.604" style="stroke: #A80036; stroke-width: 1.0;"/><!--link CommandLineMenu to TaskList--><path d="M83.8017,56 C76.6451,72.141 67.0343,93.816 59.4289,110.969 " fill="none" id="CommandLineMenu-TaskList" style="stroke: #A80036; stroke-width: 1.0;"/><polygon fill="#A80036" points="57.3407,115.678,64.646,109.0725,59.3678,111.1074,57.333,105.8291,57.3407,115.678" style="stroke: #A80036; stroke-width: 1.0;"/><!--
@startuml
class Task {
  +String title
  +LocalDate dueDate
  +Boolean status
  +String project
  +String getTitle()
  +LocalDate getDueDate()
  +Boolean getStatus()
  +String getProject()
}

class TaskList {
}
class CommandLineMenu {

}


Task <-down- TaskList
Task <-down- CommandLineMenu
TaskList <-down- CommandLineMenu
@enduml

PlantUML version 1.2018.11(Sat Sep 22 16:43:53 UTC 2018)
(GPL source distribution)
Java Runtime: Java(TM) SE Runtime Environment
JVM: Java HotSpot(TM) 64-Bit Server VM
Java Version: 1.7.0_25-b15
Operating System: Linux
Default Encoding: UTF-8
Language: en
Country: US
--></g></svg>